<svg width="120" height="121" fill="none" xmlns="http://www.w3.org/2000/svg"><g clip-path="url(#clip0)"><path d="M29.7019 37.8791C13.0443 39.3637 0 53.3772 0 70.4324 0 88.5014 14.598 103.13 32.6287 103.13H59.9819c-17.9945-.036-32.5564-14.6648-32.5564-32.6976V49.8648c0-4.2367.7949-8.2922 2.2764-11.9857z" fill="#FF43A6"/><path d="M90.2981 37.8791c1.4815 3.7297 2.2764 7.7853 2.2764 12.0219v20.5676c0 18.0328-14.5619 32.6614-32.5564 32.6984H87.3713C105.402 103.167 120 88.5376 120 70.4686c0-17.0914-13.044-31.1049-29.7019-32.5895z" fill="#B3D661"/><path d="M59.9097 103.13h-.0723H59.9097zm0-85.9633c-13.8031 0-25.5827 8.5819-30.3523 20.7124.9756-.0724 1.9512-.1448 2.9268-.1448H87.3351c.9756 0 1.9874.0362 2.9269.1448-4.7335-12.1305-16.5493-20.7124-30.3523-20.7124z" fill="#51A5C9"/><path d="M59.8012 37.7343H32.4841c-.9756 0-1.9873.0362-2.9268.1448-1.4815 3.7297-2.2764 7.7853-2.2764 12.0219v20.5676c0 18.0328 14.5619 32.6614 32.5564 32.6984h.0723c-17.9584-.073-32.4842-14.7018-32.4842-32.6984 0-18.0329 14.5258-32.6257 32.4842-32.6981-.0361-.0362-.0723-.0362-.1084-.0362z" fill="#4C4789"/><path d="M87.3713 37.7343H59.9458C77.9042 37.8067 92.43 52.4357 92.43 70.4324c0 18.0328-14.5258 32.6256-32.4842 32.6976h.0723c17.9946-.036 32.5564-14.6648 32.5564-32.6976V49.8648c0-4.2367-.7949-8.2922-2.2764-12.0219a39.53406 39.53406 0 00-2.9268-.1086z" fill="#398B4D"/><path d="M59.9096 37.7343c-17.9584.0724-32.4842 14.7014-32.4842 32.6981 0 18.0328 14.5258 32.6256 32.4842 32.6976 17.9585-.072 32.4842-14.701 32.4842-32.6976.0361-17.9967-14.5257-32.6257-32.4842-32.6981z" fill="#0B0223"/><path d="M59.9819 103.13c18.0203 0 32.6287-14.639 32.6287-32.6976 0-18.0587-14.6084-32.6981-32.6287-32.6981-18.0204 0-32.6288 14.6394-32.6288 32.6981 0 18.0586 14.6084 32.6976 32.6288 32.6976z" fill="#0B0223"/></g><path fill-rule="evenodd" clip-rule="evenodd" d="M68.5393 56.5207c-.9167.9167-.9167 2.4028 0 3.3195l1.6597 1.6597-1.6597 1.6597c-.9166.9167-.9166 2.4028 0 3.3195.9166.9166 2.4028.9166 3.3195 0l1.6597-1.6598 1.6597 1.6597c.9166.9167 2.4028.9167 3.3195 0 .9166-.9166.9166-2.4028 0-3.3194l-1.6598-1.6597 1.6598-1.6597c.9166-.9167.9166-2.4028 0-3.3195-.9167-.9166-2.4028-.9166-3.3195 0l-1.6597 1.6598-1.6598-1.6598c-.9166-.9166-2.4028-.9166-3.3194 0zM40.8356 56.5207c-.9167.9167-.9167 2.4028 0 3.3195l1.6597 1.6597-1.6597 1.6597c-.9167.9167-.9167 2.4028 0 3.3195.9166.9166 2.4028.9166 3.3194 0l1.6598-1.6598 1.6597 1.6597c.9166.9167 2.4028.9167 3.3194 0 .9167-.9166.9167-2.4028 0-3.3194l-1.6597-1.6597 1.6597-1.6597c.9167-.9167.9167-2.4028 0-3.3195-.9166-.9166-2.4028-.9166-3.3194 0l-1.6597 1.6598-1.6598-1.6598c-.9166-.9166-2.4028-.9166-3.3194 0z" fill="#fff"/><defs><clipPath id="clip0"><path fill="#fff" transform="translate(0 17.1667)" d="M0 0h120v86H0z"/></clipPath></defs></svg>
