<?xml version="1.0" encoding="utf-8"?>
<!-- Generator: Adobe Illustrator 24.2.1, SVG Export Plug-In . SVG Version: 6.00 Build 0)  -->
<svg version="1.1" id="Layer_1" xmlns="http://www.w3.org/2000/svg" xmlns:xlink="http://www.w3.org/1999/xlink"
	 viewBox="0 0 983.76 872" style="enable-background:new 0 0 983.76 872;" xml:space="preserve" class="icon-container	">
<style type="text/css">
.icon-container{
	transform: scale(2.3);
}

.icon-stroke {
	fill: none;
	stroke: #ffffff;
	stroke-width: 12px;
	stroke-linecap: round;
	stroke-dasharray: 800;
	stroke-dashoffset: 2400;
	opacity: 1;
	animation: animate-stroke 4s ease-in-out infinite;
	animation-fill-mode: forwards;
	transform-origin: 50% 50%;
	width: 200px;
	height: 200px;
	margin: 0 auto;
	background: rgba(0, 0, 0, .8) <!-- animation-delay: 8s;
	-->
}

.icon-fill {
	opacity: 0;
	animation: animate-fill 4s ease-in-out infinite;
	animation-fill-mode: forwards;
	<!-- animation-delay: 1s; -->
}

.left_ear {
	fill: #FF43A6;
}

.right_ear {
	fill: #B3D661;
}

.top {
	fill: #51A5C9;
}

.top_left {
	fill: #4C4789
}

.top_right {
	fill: #398B4D;
}

.face {
	fill: #0E1338;
}

.eyes {
	fill: #fff;
}

.back {
	fill: #ff0000;
}

@keyframes animate-stroke {
	0% {}
	25% {
		opacity: 1;
		stroke-dasharray: 800;
		stroke-dashoffset: 1720;
	}
	35%{
		stroke-dasharray: 800;
		stroke-dashoffset: 1720;
		opacity: 0;
	}
	40%{
		opacity: 0;
		stroke-dasharray: 800;
		stroke-dashoffset: 1720;
	}
	80%{
		opacity: 1;
		stroke-dasharray: 800;
		stroke-dashoffset: 2400;
	}
}

@keyframes animate-fill {
	0% {}
	25% {
		opacity: 0;
	}
	35%{
		opacity: 1;
	}
	40% {
		opacity: 1;
	}
	80% {
		opacity: 0;
	}
}

</style>
<!-- <g class="bg">
	<rect width="100%" rx="10%" ry="10%" height="100%" style="fill:rgba(0,0,0,.8);" />
</g> -->
<g class="icon-stroke" style="width:100px;">
	<path d="M392.59,363.09c-54.56,4.87-97.34,50.71-97.34,106.54v0c0,59.07,47.89,106.96,106.96,106.96h89.43
		c0.08,0,0.16,0,0.23,0c-58.97-0.12-106.73-47.97-106.73-106.96v-67.26C385.15,388.5,387.79,375.25,392.59,363.09"/>
	<path d="M591.17,363.09c4.8,12.16,7.44,25.41,7.44,39.28v67.26c0,59-47.76,106.84-106.73,106.96c0.08,0,0.16,0,0.23,0
		h89.43c59.08,0,106.96-47.89,106.96-106.96v0C688.51,413.8,645.74,367.96,591.17,363.09"/>
	<path d="M491.65,576.59c-0.08,0-0.15,0-0.23,0C491.49,576.59,491.57,576.59,491.65,576.59c0.08,0,0.16,0,0.23,0
		C491.8,576.59,491.73,576.59,491.65,576.59 M491.65,295.41c-45.21,0-83.86,28.04-99.52,67.68c3.17-0.28,6.38-0.43,9.63-0.43h89.43
		c0.16,0,0.31,0,0.46,0c0.15,0,0.31,0,0.46,0h89.43c3.25,0,6.46,0.14,9.63,0.43C575.51,323.45,536.86,295.41,491.65,295.41"/>
	<path d="M491.19,362.66h-89.43c-3.25,0-6.46,0.14-9.63,0.43c-4.8,12.16-7.44,25.42-7.44,39.28v67.26
		c0,59,47.76,106.84,106.73,106.96c0.08,0,0.15,0,0.23,0c-58.86-0.25-106.5-48.04-106.5-106.96v0c0-58.92,47.64-106.71,106.5-106.96
		C491.49,362.66,491.34,362.66,491.19,362.66"/>
	<path d="M581.54,362.66h-89.43c-0.16,0-0.31,0-0.46,0c58.86,0.25,106.5,48.04,106.5,106.96v0
		c0,58.92-47.64,106.71-106.5,106.96c0.08,0,0.15,0,0.23,0c58.97-0.12,106.73-47.97,106.73-106.96v-67.26
		c0-13.87-2.64-27.12-7.44-39.28C588,362.8,584.79,362.66,581.54,362.66"/>
	<path d="M491.65,362.66c-58.86,0.25-106.5,48.04-106.5,106.96v0c0,58.92,47.64,106.71,106.5,106.96
		c58.86-0.25,106.5-48.04,106.5-106.96v0C598.15,410.71,550.51,362.91,491.65,362.66"/>
	<path d="M465.7,463.47c0,9.5-7.7,17.21-17.21,17.21c-9.5,0-17.21-7.7-17.21-17.21c0-9.5,7.7-17.21,17.21-17.21
		C457.99,446.26,465.7,453.97,465.7,463.47z"/>
	<path d="M551.21,472.88H525.2c-4.63,0-8.39-3.76-8.39-8.39v-2.04c0-4.64,3.76-8.39,8.39-8.39h26.01
		c4.63,0,8.39,3.76,8.39,8.39v2.04C559.6,469.12,555.84,472.88,551.21,472.88z"/>
</g>
<g class="icon-fill" style="width:100px;">
	<path class="left_ear fill" d="M392.59,363.09c-54.56,4.87-97.34,50.71-97.34,106.54v0c0,59.07,47.89,106.96,106.96,106.96h89.43
		c0.08,0,0.16,0,0.23,0c-58.97-0.12-106.73-47.97-106.73-106.96v-67.26C385.15,388.5,387.79,375.25,392.59,363.09"/>
	<path class="right_ear fill" d="M591.17,363.09c4.8,12.16,7.44,25.41,7.44,39.28v67.26c0,59-47.76,106.84-106.73,106.96c0.08,0,0.16,0,0.23,0
		h89.43c59.08,0,106.96-47.89,106.96-106.96v0C688.51,413.8,645.74,367.96,591.17,363.09"/>
	<path class="top fill" d="M491.65,576.59c-0.08,0-0.15,0-0.23,0C491.49,576.59,491.57,576.59,491.65,576.59c0.08,0,0.16,0,0.23,0
		C491.8,576.59,491.73,576.59,491.65,576.59 M491.65,295.41c-45.21,0-83.86,28.04-99.52,67.68c3.17-0.28,6.38-0.43,9.63-0.43h89.43
		c0.16,0,0.31,0,0.46,0c0.15,0,0.31,0,0.46,0h89.43c3.25,0,6.46,0.14,9.63,0.43C575.51,323.45,536.86,295.41,491.65,295.41"/>
	<path class="top_left fill" d="M491.19,362.66h-89.43c-3.25,0-6.46,0.14-9.63,0.43c-4.8,12.16-7.44,25.42-7.44,39.28v67.26
		c0,59,47.76,106.84,106.73,106.96c0.08,0,0.15,0,0.23,0c-58.86-0.25-106.5-48.04-106.5-106.96v0c0-58.92,47.64-106.71,106.5-106.96
		C491.49,362.66,491.34,362.66,491.19,362.66"/>
	<path class="top_right fill" d="M581.54,362.66h-89.43c-0.16,0-0.31,0-0.46,0c58.86,0.25,106.5,48.04,106.5,106.96v0
		c0,58.92-47.64,106.71-106.5,106.96c0.08,0,0.15,0,0.23,0c58.97-0.12,106.73-47.97,106.73-106.96v-67.26
		c0-13.87-2.64-27.12-7.44-39.28C588,362.8,584.79,362.66,581.54,362.66"/>
	<path class="face fill" d="M491.65,362.66c-58.86,0.25-106.5,48.04-106.5,106.96v0c0,58.92,47.64,106.71,106.5,106.96
		c58.86-0.25,106.5-48.04,106.5-106.96v0C598.15,410.71,550.51,362.91,491.65,362.66"/>
	<path class="eyes" d="M465.7,463.47c0,9.5-7.7,17.21-17.21,17.21c-9.5,0-17.21-7.7-17.21-17.21c0-9.5,7.7-17.21,17.21-17.21
		C457.99,446.26,465.7,453.97,465.7,463.47z"/>
	<path class="eyes" d="M551.21,472.88H525.2c-4.63,0-8.39-3.76-8.39-8.39v-2.04c0-4.64,3.76-8.39,8.39-8.39h26.01
		c4.63,0,8.39,3.76,8.39,8.39v2.04C559.6,469.12,555.84,472.88,551.21,472.88z"/>
</g>

</svg>
